<?xml version="1.0" encoding="UTF-8"?>
<svg id="Layer_1" data-name="Layer 1" xmlns="http://www.w3.org/2000/svg" viewBox="0 0 867.47 714.38">
  <defs>
    <style>
      .cls-1 {
        fill: none;
      }

      .cls-2 {
        fill: #fff;
      }

      .cls-3 {
        fill: #282525;
      }

      .cls-4 {
        fill: #cc202a;
      }
    </style>
  </defs>
  <path class="cls-1" d="M608.13,568.71V155.17l-118.2,424.59c43.85,1.01,83.24-3.36,118.2-11.06Z"/>
  <path class="cls-1" d="M135.57,350.8v19.21c.01,48.46,24.23,86.01,58.95,114.92l.39-245.3c-34.69,28.99-59.32,62.22-59.33,111.16h-.01Z"/>
  <path class="cls-3" d="M194.52,150.27c-.89,0-1.77-.26-2.53-.77-1.27-.85-2.03-2.27-2.03-3.8v-13.41c0-30.87-7.14-53.04-21.22-65.88-14.15-12.91-30.78-11.55-30.95-11.53-1.28.12-2.56-.31-3.5-1.17-.95-.87-1.5-2.09-1.5-3.37V6.5c0-2.52,2.04-4.56,4.56-4.56h188.68c2.02,0,3.79,1.32,4.37,3.25l29.62,98.86c.39,1.29.18,2.69-.56,3.82-.74,1.13-1.94,1.87-3.28,2.03-59.2,7-113,20.47-159.91,40.03-.57.23-1.16.35-1.76.35ZM141.92,45.76c7.12.39,20.6,2.71,32.81,13.76,16.16,14.63,24.36,39.11,24.36,72.77v6.62c44.73-17.92,95.34-30.49,150.64-37.43l-27.09-90.42h-180.72v34.7Z"/>
  <path class="cls-2" d="M326.03,6.5h-188.68v43.84s57.17-5.71,57.17,81.96v13.41c51.18-21.35,106.24-33.86,161.13-40.35l-29.62-98.86Z"/>
  <path class="cls-3" d="M453.74,714.38h-47.66c-2.07,0-3.88-1.39-4.41-3.39l-25.73-96.32c-.38-1.42-.05-2.94.88-4.07s2.34-1.76,3.82-1.66c31.24,2.03,64.67,2.57,99.33,1.58,1.54,0,2.83.61,3.73,1.75.89,1.14,1.19,2.64.8,4.04l-26.37,94.73c-.55,1.97-2.35,3.34-4.4,3.34ZM409.59,705.25h40.69l23.78-85.45c-30.42.71-59.85.25-87.65-1.37l23.19,86.81Z"/>
  <path class="cls-2" d="M380.35,613.49l25.73,96.32h47.66l26.37-94.73c-35.89,1.02-69.07.41-99.75-1.59Z"/>
  <path class="cls-4" d="M266.18,195.35c.8-.37,1.61-.72,2.42-1.09l-2.42-9.16v10.24Z"/>
  <path class="cls-1" d="M437.8,144.66s-27.9,3.07-66.72,12.18l90.28,301.38,96.42-314.35c-36.18-3.95-76.13-4.24-119.98.79h0Z"/>
  <path class="cls-3" d="M862.84,275.02h-40.19c-1.53,0-2.89-.75-3.71-1.91-2.29-2.78-30.67-36.49-85.07-68.26-1.4-.82-2.26-2.32-2.26-3.94v-67.96c0-1.4.64-2.72,1.74-3.59,1.1-.87,2.53-1.18,3.9-.85,11.76,2.86,18.24,4.69,18.51,4.76,1.83.54,44.26,12.41,68.26-25.97.83-1.33,2.3-2.15,3.87-2.15h34.95c2.52,0,4.56,2.04,4.56,4.56v160.73c0,2.52-2.04,4.56-4.56,4.56ZM824.8,265.89h33.47V114.28h-27.9c-27.98,41.74-76.66,27.9-77.15,27.76,0,0-4.45-1.26-12.48-3.27v59.52c50.18,29.73,77.68,60.1,84.07,67.6Z"/>
  <path class="cls-3" d="M862.91,615.66h-34.94c-1.57,0-3.04-.81-3.87-2.14-24.01-38.41-66.42-26.51-68.21-25.98-.13.04-.27.07-.4.1l-8.38,1.67c-.14.04-.27.07-.42.1-2.67.5-5.32.97-7.97,1.45l-1.66.3c-1.33.23-2.7-.12-3.74-.99-1.04-.87-1.63-2.15-1.63-3.5v-66.73c0-1.62.86-3.12,2.26-3.94,56.5-33,84.92-68.09,85.2-68.44.87-1.08,2.18-1.71,3.57-1.71h40.19c2.52,0,4.56,2.04,4.56,4.56v160.72c0,2.52-2.04,4.56-4.56,4.56ZM830.45,606.54h27.89v-151.59h-33.49c-6.41,7.52-33.9,37.87-84.04,67.58v58.67c1.28-.23,2.57-.47,3.86-.71.1-.03.19-.05.29-.07l8.58-1.71c3.83-1.03,49.95-12.39,76.9,27.83Z"/>
  <path class="cls-3" d="M192.26,580.51c-.55,0-1.1-.1-1.63-.3-98.38-37.59-144.97-95.4-166.72-137.27C.23,397.34,0,361.07,0,359.55,0,304.62,25.61,253.21,74.06,210.89c35.27-30.81,70.03-46.14,73.49-47.62,11.74-6.49,30.52-15.24,44.49-21.39.21-.14.44-.26.67-.36.43-.19.87-.36,1.31-.53l.62-.24c3.48-1.52,6.87-2.98,9.82-4.2.57-.24,1.19-.37,1.78-.35,42.92-16.41,90.99-28.05,142.95-34.61.56-.34,1.19-.56,1.85-.64,83.46-9.87,164.08-5.6,217.03-.28,1.36.14,2.59.87,3.34,2.01s.96,2.55.57,3.86l-11.75,38.53c-.64,2.1-2.67,3.44-4.86,3.2-37.48-4.12-75.77-3.82-117.05.92-.28.03-29.11,3.45-65.03,11.6-.36.22-.75.39-1.17.48-37.83,8.87-72.3,20.22-102.48,33.74-.09.05-.18.09-.27.13l-2.44,1.12c-27.39,12.49-50.77,26.75-69.49,42.39-.51.43-1.1.73-1.71.9-34.85,35.04-55.59,76.46-55.6,111.26v19.21c.01,43.52,18.12,79.76,55.35,110.77,1.05.87,1.65,2.16,1.64,3.52l-.3,91.63c0,1.5-.75,2.9-1.98,3.75-.77.53-1.67.8-2.58.8ZM196.91,149.66c-.18.11-.36.21-.55.29-13.93,6.12-32.95,14.96-44.59,21.42-.14.08-.29.15-.44.21-.36.15-36.18,15.47-71.47,46.36-46.94,41.08-70.73,88.73-70.73,141.61,0,.35.3,35.94,23.12,79.63,20.6,39.44,64.24,93.61,155.47,130.08l.27-82.84c-37.8-32.14-56.97-71.29-56.98-116.4v-19.21c.01-37.85,22.56-82.61,60.32-119.74.7-.69,1.58-1.11,2.5-1.26,18.96-15.44,42.26-29.51,69.32-41.85l2.13-.98c.11-.06.22-.11.33-.16,30.44-13.67,65.16-25.15,103.19-34.14.37-.23.78-.4,1.21-.5,37.01-8.47,66.97-12.02,67.26-12.06,40.59-4.66,78.36-5.1,115.33-1.33l9.03-29.59c-52.06-4.97-128.48-8.57-207.57.58-.54.32-1.15.54-1.79.62-52.65,6.51-101.23,18.27-144.41,34.95-.5.19-1.02.29-1.54.31-2.49,1.05-5.24,2.23-8.14,3.5l-.88.35-.38.15Z"/>
  <path class="cls-2" d="M822.65,270.45h40.19V109.72h-34.95c-26.2,41.92-73.37,27.95-73.37,27.95,0,0-6.53-1.85-18.34-4.72v67.96c58.01,33.89,86.47,69.54,86.47,69.54h0Z"/>
  <path class="cls-2" d="M745.86,584.9l8.73-1.74s47.16-14,73.37,27.95h34.94v-160.72h-40.19s-28.45,35.65-86.46,69.54v66.73c3.18-.57,6.38-1.14,9.61-1.74h0Z"/>
  <path class="cls-2" d="M267.47,191c35.82-16.08,73.07-26.99,103.6-34.15l-.05-.2c37.2-8.52,66.77-11.97,66.77-11.97,43.85-5.03,81.9-4.9,118.07-.93l11.76-38.53c-64.04-6.44-140.91-8.61-216.04.27l.12.39c-49.43,6.11-98.88,17.21-145.49,35.22v-.34c-2.92,1.21-6.29,2.65-9.86,4.22-.61.25-1.22.46-1.82.72v.07c-14.98,6.58-33.63,15.32-44.97,21.6,0,0-144.99,61.14-144.99,192.17,0,0-.16,144.61,187.7,216.39l.3-91.63c-34.72-28.92-56.98-65.82-56.99-114.28v-19.21c.01-42.6,28.64-86.68,58.95-116.49v.83c20.73-17.32,45.21-31.5,70.52-43.03l2.44-1.12h0Z"/>
  <path class="cls-3" d="M192.26,578.22c-.27,0-.55-.05-.81-.15-97.71-37.34-143.94-94.67-165.5-136.19C2.51,396.78,2.28,361.05,2.29,359.55c0-68.54,39.85-117.74,73.28-146.94,35.07-30.64,70.65-46.27,72.99-47.28,11.72-6.49,30.63-15.29,44.61-21.45.14-.11.29-.2.45-.27.4-.18.81-.33,1.23-.49l.65-.25c3.53-1.54,6.9-2.99,9.84-4.21.4-.17.83-.21,1.25-.14,43.02-16.5,91.28-28.18,143.48-34.73.35-.31.78-.51,1.25-.57,83.25-9.85,163.7-5.59,216.53-.28.68.07,1.29.44,1.67,1.01.38.57.48,1.28.28,1.93l-11.75,38.53c-.32,1.05-1.35,1.72-2.43,1.6-37.65-4.13-76.11-3.83-117.56.92-.29.03-29.44,3.49-65.7,11.74-.23.18-.48.33-.76.39-38.01,8.91-72.65,20.32-102.98,33.91-.06.04-.13.07-.2.1l-2.44,1.12c-27.57,12.57-51.12,26.94-70,42.71-.39.33-.87.5-1.36.53-35.58,35.57-56.76,77.82-56.77,113.38v19.21c.01,44.24,18.39,81.05,56.17,112.53.52.43.82,1.08.82,1.76l-.3,91.63c0,.75-.37,1.45-.99,1.87-.39.26-.83.4-1.29.4ZM195.84,147.63c-.13.09-.26.17-.41.23-13.97,6.14-33.07,15.02-44.77,21.51-.07.04-.14.07-.22.11-1.44.61-143.6,62.09-143.6,190.07,0,.36.27,36.31,23.26,80.46,21,40.31,65.75,95.83,159.89,132.61l.28-87.25c-37.8-31.82-56.98-70.62-56.99-115.34v-19.21c.01-37.25,22.3-81.4,59.63-118.11.48-.47,1.13-.7,1.77-.65,18.91-15.5,42.24-29.62,69.39-42.01l2.22-1.02c.07-.04.15-.08.22-.11,30.42-13.66,65.14-25.13,103.19-34.1.23-.19.5-.34.78-.4,36.89-8.45,66.72-11.98,67.02-12.01,41.11-4.72,79.31-5.09,116.7-1.13l10.39-34.07c-52.32-5.13-130.49-9.04-211.42.38-.34.3-.77.5-1.23.55-52.83,6.53-101.6,18.33-144.95,35.09-.36.14-.75.18-1.13.13-2.62,1.1-5.55,2.36-8.64,3.71l-.78.31c-.21.08-.42.16-.63.25Z"/>
  <path class="cls-3" d="M305.06,714.38h-167.74c-2.52,0-4.56-2.04-4.56-4.56v-28.61c0-2.19,1.56-4.08,3.72-4.48,54.15-10.25,53.54-58.14,53.48-60.18v-136.13s.39-240.78.39-240.78c0-1.35.6-2.63,1.64-3.5,20.38-16.99,46.05-32.95,72.29-44.94,1.41-.65,3.06-.53,4.37.32,1.31.84,2.1,2.3,2.09,3.85l-1.14,327.68v93.38c0,.14,0,.28-.02.43-.02,2.2.01,15.86,4.41,29.77,6.08,19.26,17.36,30.01,33.52,31.97,2.41.29,4.18,2.43,4.01,4.85l-1.89,26.69c-.17,2.39-2.16,4.24-4.55,4.24ZM141.89,705.25h158.92l1.3-18.31c-34.28-7.28-42.31-48.87-41.65-70.67,0-.07,0-.14.01-.2v-93.05l1.12-320.48c-22.54,10.92-44.31,24.67-62.11,39.24l-.39,238.63v135.99c.02.43.99,55.24-57.2,68.5v20.34Z"/>
  <path class="cls-2" d="M265.04,616.43v-93.4l1.14-327.68c-25.32,11.58-50.52,27.01-71.26,44.3l-.39,240.77v136s1.63,53.66-57.2,64.79v28.61h167.74l1.89-26.69c-43.8-5.29-41.93-66.71-41.93-66.71h.01Z"/>
  <path class="cls-3" d="M785.38,714.38h-236.35c-2.52,0-4.56-2.04-4.56-4.56v-24.79c0-2.02,1.33-3.81,3.28-4.38,60.06-17.67,56.05-60.01,55.86-61.8-.02-.17-.03-.35-.03-.52V188.52l-109.24,392.47c-.56,2.01-2.42,3.29-4.51,3.34-17.43-.41-35.1-1.63-52.55-3.63-.3-.04-30.75-3.6-71.61-13.65-1.62-.4-2.89-1.65-3.32-3.26l-98.15-368.35c-.58-2.16.5-4.42,2.54-5.34,36.2-16.26,76.07-26.63,106.76-33.84,2.35-.56,4.75.83,5.43,3.16l82.56,282.89,91.94-299.77c.24-.77.67-1.44,1.22-1.97l10.57-34.13c-.21-.81-.2-1.67.05-2.49l30.83-100.52c.5-1.97,2.29-3.44,4.42-3.44h196.32c2.52,0,4.56,2.04,4.56,4.56v47.65c0,1.26-.52,2.46-1.43,3.32-.92.86-2.15,1.3-3.41,1.23-.21-.02-22.39-1.05-39,14.67-12.65,11.97-19.07,30.51-19.07,55.11v6.38c0,.26-.02.51-.06.76l-.66,64.73c.47.73.73,1.58.73,2.47v417.42c-.01,2.08.19,49.99,47.7,58.39,2.18.39,3.77,2.28,3.77,4.5v28.61c0,2.52-2.04,4.56-4.56,4.56ZM553.6,705.25h227.22v-20.31c-51.44-11.63-51.47-66.11-51.47-66.67V202.97c-.49-.75-.76-1.63-.75-2.55l.69-67.54c0-.23.02-.45.06-.67v-5.66c0-27.28,7.41-48.09,22.02-61.84,14.67-13.81,32.46-16.53,40.89-17V9.13h-188.38l-29.16,95.08c.21.82.2,1.69-.05,2.52l-11.95,38.57c-.24.76-.66,1.43-1.21,1.95l-95.79,312.32c-.59,1.93-2.29,3.28-4.4,3.23-2.02-.01-3.79-1.35-4.35-3.28l-85.61-293.37c-28.64,6.82-64.44,16.38-97.35,30.72l96.45,361.96c38.94,9.41,67.56,12.78,67.86,12.81,15.98,1.83,32.17,3,48.17,3.48l116.13-417.22c.65-2.35,3.05-3.78,5.43-3.22l.35.07c.24.04.49.09.72.14,2.09.46,3.58,2.32,3.58,4.46v458.82c.35,4.55,2.27,50.61-59.1,70.26v16.85ZM600.5,4.58h.02-.02Z"/>
  <path class="cls-2" d="M600.5,4.58l-30.88,100.72c.23.03-1.28,3.5-1.05,3.51l-10.24,33.59c-.19-.03-.37,1.51-.56,1.48l-96.42,314.35-86.83-297.53c-30.5,7.17-70.11,17.47-105.93,33.56l98.15,368.35c41.06,10.09,71.05,13.55,71.05,13.55,18.04,2.07,35.4,3.21,52.14,3.61l117.09-420.66c.35.08.75.14,1.12.22v459s5.7,47.65-59.1,66.71v24.79h236.35v-28.61c-52.04-9.2-51.47-62.88-51.47-62.88V200.9c-.23-.15.34-1.67.11-1.81l-.15-66.15h.05v-6.38c0-78.15,62.91-74.34,62.91-74.34V4.58h-196.32Z"/>
  <path class="cls-1" d="M265.04,528.03c34.88,16.01,71.33,27.1,101.71,34.58l-98.15-368.35c-.82.37-1.62.72-2.42,1.09l-1.14,332.68h0Z"/>
  <path class="cls-3" d="M446.44,620.15c-23.02,0-45.24-.7-66.37-2.09-.44-.03-.86-.12-1.25-.26-38.3-2.67-73.17-7.78-109.62-16.04-2.08-.47-3.55-2.31-3.56-4.44l-.18-68.58c0-1.56.79-3.01,2.1-3.85,1.31-.85,2.96-.96,4.37-.31,30.73,14.1,62.53,25.37,94.53,33.48.46-.02.92.01,1.38.12,40.27,9.9,70.18,13.42,70.48,13.45,16.16,1.86,32.55,3.02,48.7,3.47.11,0,.22.01.33.02,42.85.96,80.47-2.28,115.02-9.9,1.35-.29,2.76.03,3.83.89,1.08.86,1.71,2.16,1.71,3.54l.19,36.37c.01,2.33-1.73,4.29-4.04,4.56-44.65,5.19-84.77,8.16-126.28,9.33-.43,0-.86-.04-1.27-.14-10.16.26-20.2.39-30.09.39ZM381.88,609.03c29.98,1.93,62.18,2.46,95.71,1.57.45,0,.85.04,1.25.14,39.51-1.16,77.83-3.95,120.12-8.77l-.14-26.67c-33.84,6.95-70.55,9.87-112.01,8.93-.13,0-.25-.01-.38-.02-16.31-.46-32.84-1.64-49.16-3.51-.3-.04-30.01-3.52-70.12-13.29-.47.03-.96,0-1.43-.13-30.8-7.72-61.41-18.3-91.11-31.49l.15,57.85c35.09,7.78,68.84,12.6,105.89,15.13.43.03.84.12,1.22.25Z"/>
  <path class="cls-2" d="M486.9,579.66c-15.81-.44-32.15-1.55-49.1-3.5,0,0-29.99-3.46-71.05-13.55l.08.25c-29.97-7.51-63.01-18.63-96.8-34.14l.18,68.58c33.11,7.51,67.94,13.14,110.13,16.03l.03.18c29.97,1.97,62.39,2.58,97.35,1.66l-.04.18c39.33-1.12,79.77-3.95,125.88-9.31l-.19-36.37c-34.88,7.69-72.75,10.99-116.45,10h-.01Z"/>
  <path class="cls-3" d="M446.44,617.87c-22.97,0-45.14-.7-66.22-2.08-.31-.02-.6-.1-.87-.24-38.33-2.66-73.19-7.75-109.65-16.02-1.04-.24-1.77-1.16-1.77-2.22l-.18-68.58c0-.78.39-1.5,1.05-1.92.65-.42,1.48-.48,2.18-.15,30.99,14.22,63.05,25.57,95.33,33.73.32-.07.66-.06.98.02,40.43,9.94,70.46,13.47,70.76,13.5,16.23,1.86,32.68,3.03,48.9,3.48.08,0,.16,0,.24.02,43.06.97,80.91-2.29,115.67-9.95.68-.14,1.38.01,1.91.45.54.43.85,1.08.86,1.77l.19,36.37c0,1.16-.86,2.14-2.02,2.27-44.58,5.18-84.64,8.14-126.07,9.32-.34.03-.61-.04-.89-.15-10.27.26-20.42.39-30.41.39ZM381.35,611.29c30.16,1.95,62.56,2.49,96.3,1.6.32-.03.6.04.88.15,40.35-1.17,79.43-4.05,122.73-9.03l-.17-31.52c-34.43,7.32-71.85,10.4-114.24,9.46-.09,0-.18,0-.26-.02-16.27-.46-32.78-1.64-49.06-3.51-.3-.03-30.06-3.52-70.25-13.34-.33.07-.67.06-1.01-.02-31.79-7.96-63.38-18.99-93.96-32.8l.16,63.21c35.84,8.04,70.22,12.99,108.02,15.58.31.02.6.1.86.23Z"/>
  <path class="cls-3" d="M862.84,272.73h-40.19c-.79,0-1.48-.4-1.89-1.01-1.99-2.42-30.59-36.64-85.74-68.86-.7-.41-1.13-1.16-1.13-1.97v-67.96c0-.7.32-1.36.87-1.79.55-.43,1.26-.59,1.95-.42,11.71,2.85,18.36,4.72,18.42,4.74,1.89.56,45.87,12.96,70.82-26.96.42-.67,1.15-1.07,1.93-1.07h34.95c1.26,0,2.28,1.02,2.28,2.28v160.73c0,1.26-1.02,2.28-2.28,2.28ZM823.73,268.17h36.83V112h-31.42c-26.95,41.58-74.79,27.99-75.27,27.85-.04,0-5.55-1.57-15.41-4v63.75c52.09,30.65,80.56,62.99,85.28,68.58Z"/>
  <path class="cls-3" d="M862.91,613.38h-34.94c-.78,0-1.52-.41-1.93-1.07-24.96-39.93-68.94-27.52-70.8-26.97l-8.68,1.74c-.09.03-.18.05-.28.07-2.67.5-5.32.97-7.95,1.44l-1.66.3c-.68.12-1.35-.06-1.87-.49-.52-.43-.82-1.07-.82-1.75v-66.73c0-.81.43-1.56,1.13-1.97,56.92-33.25,85.55-68.64,85.83-68.99.43-.54,1.09-.86,1.78-.86h40.19c1.26,0,2.28,1.02,2.28,2.28v160.72c0,1.26-1.02,2.28-2.28,2.28ZM829.22,608.82h31.41v-156.16h-36.84c-4.75,5.63-33.21,37.94-85.25,68.56v62.7c2.21-.4,4.43-.8,6.66-1.21.07-.02.14-.04.22-.05l8.73-1.74c.28-.09,48.11-13.71,75.07,27.9Z"/>
</svg>