<?xml version="1.0" encoding="UTF-8"?>
<svg id="Layer_2" xmlns="http://www.w3.org/2000/svg" version="1.1" viewBox="6300 6800 1900 750">
  <!-- Generator: Adobe Illustrator 30.2.1, SVG Export Plug-In . SVG Version: 2.1.1 Build 1)  -->
  <defs>
    <style>
      .st0, .st1, .st2, .st3 {
        fill: none;
      }

      .st1, .st2 {
        stroke: #272525;
      }

      .st1, .st2, .st3 {
        stroke-linecap: round;
        stroke-linejoin: round;
      }

      .st1, .st3 {
        stroke-width: 6.71px;
      }

      .st2 {
        stroke-width: 3.35px;
      }

      .st3 {
        stroke: #cb2229;
      }

      .st4 {
        fill: #fff;
      }

      .st5 {
        fill: #cb2229;
      }

      .st6 {
        fill: #a7153d;
      }
    </style>
  </defs>
  <g>
    <path class="st3" d="M6919.17,7027.73"/>
    <path class="st0" d="M6816.17,7350.57v-303.95l-86.88,312.08c32.23.74,61.18-2.47,86.88-8.13Z"/>
    <path class="st0" d="M6468.83,7190.41v14.12c.01,35.62,17.81,63.22,43.33,84.47l.29-180.3c-25.5,21.31-43.6,45.73-43.61,81.7Z"/>
    <path class="st1" d="M6608.82,6937.34h-138.68v32.22s42.02-4.2,42.02,60.24v9.86c37.62-15.69,78.09-24.89,118.43-29.66l-21.77-72.66Z"/>
    <path class="st4" d="M6608.82,6937.34h-138.68v32.22s42.02-4.2,42.02,60.24v9.86c37.62-15.69,78.09-24.89,118.43-29.66l-21.77-72.66Z"/>
    <path class="st1" d="M6648.75,7383.49l18.91,70.8h35.03l19.38-69.63c-26.38.75-50.77.3-73.32-1.17Z"/>
    <path class="st4" d="M6648.75,7383.49l18.91,70.8h35.03l19.38-69.63c-26.38.75-50.77.3-73.32-1.17Z"/>
    <path class="st5" d="M6564.83,7076.15c.59-.27,1.18-.53,1.78-.8l-1.78-6.73v7.53Z"/>
    <path class="st0" d="M6690.97,7038.89s-20.51,2.26-49.04,8.95l66.36,221.52,70.87-231.05c-26.59-2.9-55.96-3.12-88.19.58Z"/>
    <path class="st1" d="M6973.84,7131.35h29.54v-118.14h-25.69c-19.26,30.81-53.93,20.54-53.93,20.54,0,0-4.8-1.36-13.48-3.47v49.95c42.64,24.91,63.56,51.11,63.56,51.11Z"/>
    <path class="st1" d="M6917.4,7362.47l6.42-1.28s34.66-10.29,53.93,20.54h25.68v-118.13h-29.54s-20.91,26.2-63.55,51.11v49.05c2.34-.42,4.69-.84,7.06-1.28Z"/>
    <path class="st1" d="M6565.78,7072.95c26.33-11.82,53.71-19.84,76.15-25.1l-.04-.15c27.34-6.26,49.08-8.8,49.08-8.8,32.23-3.7,60.2-3.6,86.78-.68l8.64-28.32c-47.07-4.73-103.57-6.33-158.79.2l.09.29c-36.33,4.49-72.68,12.65-106.94,25.89v-.25c-2.15.89-4.62,1.95-7.25,3.1-.45.18-.9.34-1.34.53v.05c-11.01,4.84-24.72,11.26-33.05,15.88,0,0-106.57,44.94-106.57,141.25,0,0-.12,106.29,137.96,159.05l.22-67.35c-25.52-21.26-41.88-48.38-41.89-84v-14.12c.01-31.31,21.05-63.71,43.33-85.62v.61c15.24-12.73,33.23-23.15,51.83-31.63l1.79-.82Z"/>
    <path class="st4" d="M6973.84,7131.35h29.54v-118.14h-25.69c-19.26,30.81-53.93,20.54-53.93,20.54,0,0-4.8-1.36-13.48-3.47v49.95c42.64,24.91,63.56,51.11,63.56,51.11Z"/>
    <path class="st4" d="M6917.4,7362.47l6.42-1.28s34.66-10.29,53.93,20.54h25.68v-118.13h-29.54s-20.91,26.2-63.55,51.11v49.05c2.34-.42,4.69-.84,7.06-1.28Z"/>
    <path class="st4" d="M6565.78,7072.95c26.33-11.82,53.71-19.84,76.15-25.1l-.04-.15c27.34-6.26,49.08-8.8,49.08-8.8,32.23-3.7,60.2-3.6,86.78-.68l8.64-28.32c-47.07-4.73-103.57-6.33-158.79.2l.09.29c-36.33,4.49-72.68,12.65-106.94,25.89v-.25c-2.15.89-4.62,1.95-7.25,3.1-.45.18-.9.34-1.34.53v.05c-11.01,4.84-24.72,11.26-33.05,15.88,0,0-106.57,44.94-106.57,141.25,0,0-.12,106.29,137.96,159.05l.22-67.35c-25.52-21.26-41.88-48.38-41.89-84v-14.12c.01-31.31,21.05-63.71,43.33-85.62v.61c15.24-12.73,33.23-23.15,51.83-31.63l1.79-.82Z"/>
    <path class="st2" d="M6565.78,7072.95c26.33-11.82,53.71-19.84,76.15-25.1l-.04-.15c27.34-6.26,49.08-8.8,49.08-8.8,32.23-3.7,60.2-3.6,86.78-.68l8.64-28.32c-47.07-4.73-103.57-6.33-158.79.2l.09.29c-36.33,4.49-72.68,12.65-106.94,25.89v-.25c-2.15.89-4.62,1.95-7.25,3.1-.45.18-.9.34-1.34.53v.05c-11.01,4.84-24.72,11.26-33.05,15.88,0,0-106.57,44.94-106.57,141.25,0,0-.12,106.29,137.96,159.05l.22-67.35c-25.52-21.26-41.88-48.38-41.89-84v-14.12c.01-31.31,21.05-63.71,43.33-85.62v.61c15.24-12.73,33.23-23.15,51.83-31.63l1.79-.82Z"/>
    <path class="st1" d="M6563.99,7385.65v-68.65l.84-240.85c-18.61,8.51-37.13,19.85-52.38,32.56l-.29,176.97v99.96s1.2,39.44-42.04,47.62v21.03h123.29l1.39-19.62c-32.19-3.89-30.82-49.03-30.82-49.03Z"/>
    <path class="st4" d="M6563.99,7385.65v-68.65l.84-240.85c-18.61,8.51-37.13,19.85-52.38,32.56l-.29,176.97v99.96s1.2,39.44-42.04,47.62v21.03h123.29l1.39-19.62c-32.19-3.89-30.82-49.03-30.82-49.03Z"/>
    <path class="st1" d="M6810.56,6935.93l-22.7,74.03c.17.02.33.04.51.06l-8.78,28.35c-.15-.01-.29-.03-.43-.05l-70.87,231.05-63.82-218.69c-22.42,5.27-51.53,12.84-77.86,24.67l72.14,270.74c30.18,7.42,52.22,9.96,52.22,9.96,13.26,1.52,26.02,2.36,38.32,2.65l86.06-309.19c.26.06.55.1.82.16v337.37s4.19,35.02-43.44,49.03v18.22h173.72v-21.03c-38.25-6.76-37.83-46.22-37.83-46.22v-306.81c-.17-.11-.37-.21-.55-.32l.51-49.64s.04,0,.04,0v-4.69c0-57.44,46.24-54.64,46.24-54.64v-35.02h-144.3Z"/>
    <path class="st4" d="M6810.56,6935.93l-22.7,74.03c.17.02-.94,2.57-.77,2.58l-7.53,24.69c-.14-.02-.27,1.11-.41,1.09l-70.87,231.05-63.82-218.69c-22.42,5.27-51.53,12.84-77.86,24.67l72.14,270.74c30.18,7.42,52.22,9.96,52.22,9.96,13.26,1.52,26.02,2.36,38.32,2.65l86.06-309.19c.26.06.55.1.82.16v337.37s4.19,35.02-43.44,49.03v18.22h173.72v-21.03c-38.25-6.76-37.83-46.22-37.83-46.22v-306.81c-.17-.11.25-1.23.08-1.33l-.11-48.62s.04,0,.04,0v-4.69c0-57.44,46.24-54.64,46.24-54.64v-35.02h-144.3Z"/>
    <path class="st0" d="M6563.99,7320.67c25.64,11.77,52.43,19.92,74.76,25.42l-72.14-270.74c-.6.27-1.19.53-1.78.8l-.84,244.52Z"/>
    <path class="st1" d="M6727.06,7358.62c-11.62-.32-23.63-1.14-36.09-2.57,0,0-22.04-2.54-52.22-9.96l.06.18c-22.03-5.52-46.31-13.69-71.15-25.09l.13,50.41c24.34,5.52,49.94,9.66,80.95,11.78l.02.13c22.03,1.45,45.86,1.9,71.55,1.22l-.03.13c28.91-.82,58.63-2.9,92.52-6.84l-.14-26.73c-25.64,5.65-53.47,8.08-85.59,7.35Z"/>
    <path class="st4" d="M6727.06,7358.62c-11.62-.32-23.63-1.14-36.09-2.57,0,0-22.04-2.54-52.22-9.96l.06.18c-22.03-5.52-46.31-13.69-71.15-25.09l.13,50.41c24.34,5.52,49.94,9.66,80.95,11.78l.02.13c22.03,1.45,45.86,1.9,71.55,1.22l-.03.13c28.91-.82,58.63-2.9,92.52-6.84l-.14-26.73c-25.64,5.65-53.47,8.08-85.59,7.35Z"/>
    <path class="st2" d="M6727.06,7358.62c-11.62-.32-23.63-1.14-36.09-2.57,0,0-22.04-2.54-52.22-9.96l.06.18c-22.03-5.52-46.31-13.69-71.15-25.09l.13,50.41c24.34,5.52,49.94,9.66,80.95,11.78l.02.13c22.03,1.45,45.86,1.9,71.55,1.22l-.03.13c28.91-.82,58.63-2.9,92.52-6.84l-.14-26.73c-25.64,5.65-53.47,8.08-85.59,7.35Z"/>
    <path class="st2" d="M6973.84,7131.35h29.54v-118.14h-25.69c-19.26,30.81-53.93,20.54-53.93,20.54,0,0-4.8-1.36-13.48-3.47v49.95c42.64,24.91,63.56,51.11,63.56,51.11Z"/>
    <path class="st2" d="M6917.4,7362.47l6.42-1.28s34.66-10.29,53.93,20.54h25.68v-118.13h-29.54s-20.91,26.2-63.55,51.11v49.05c2.34-.42,4.69-.84,7.06-1.28Z"/>
    <path class="st4" d="M7065.61,7218.91c-9.57,0-17.26-2.97-23.07-8.92-5.79-5.95-8.62-13.89-8.5-23.81l.04-143.87c.13-9.92,3.11-17.86,8.93-23.85,5.81-5.97,13.41-8.97,22.79-8.99l111.64-.16.04,26.1-75.91.12-2.02,157.22,77.66-.12.04,26.1-111.65.18Z"/>
    <path class="st4" d="M7389.78,7185.64c-.14,9.92-3.11,17.86-8.94,23.85-5.82,5.98-13.42,8.97-22.79,8.98l-113.69.17c-9.57.01-17.26-2.95-23.06-8.92-5.81-5.96-8.65-13.89-8.51-23.82l.06-143.87c.12-9.92,3.11-17.86,8.92-23.84,5.81-5.98,13.42-8.98,22.79-8.99l113.69-.17c9.57-.02,17.25,2.96,23.06,8.92,5.8,5.96,8.64,13.9,8.52,23.82l-.05,143.86ZM7280.34,7035.25l-.27,157.23,42.2-.07.27-157.23-42.2.07Z"/>
    <polygon class="st4" points="7748.36 7008.38 7580.16 7008.63 7580.16 7008.7 7425.64 7008.93 7425.67 7035.03 7476.07 7034.96 7475.85 7218.28 7543.24 7218.19 7543.47 7034.86 7593.87 7034.79 7593.87 7034.71 7630.61 7034.66 7630.37 7217.99 7697.77 7217.89 7698 7034.55 7748.39 7034.48 7748.36 7008.38"/>
    <path class="st4" d="M7960.97,7184.72c-.14,9.91-3.11,17.87-8.93,23.84-5.82,5.98-13.42,8.97-22.79,8.99l-113.7.17c-9.56,0-17.26-2.95-23.07-8.92-5.8-5.96-8.63-13.9-8.5-23.82l.05-143.86c.12-9.92,3.1-17.87,8.91-23.84,5.83-5.98,13.43-8.97,22.8-8.99l113.69-.18c9.56-.01,17.26,2.96,23.07,8.92,5.8,5.96,8.63,13.9,8.5,23.82l-.04,143.87ZM7851.53,7034.33l-.26,157.22,42.19-.07.27-157.23-42.2.07Z"/>
    <rect class="st6" x="7034.04" y="7239.2" width="926.99" height="13.39"/>
    <g>
      <path class="st4" d="M7119.68,7331.38c-.05,4.75-1.48,8.56-4.28,11.43-2.8,2.86-6.47,4.3-11,4.3l-37.51-.11v31.43s-32.54.03-32.54.03l-.12-100.4,70.16-.07c4.62,0,8.34,1.43,11.14,4.28,2.81,2.86,4.19,6.67,4.13,11.42l.02,37.68ZM7066.81,7290.54l.04,43.94,20.37-.02-.04-43.94-20.37.02Z"/>
      <path class="st4" d="M7217.39,7378.28l-32.53.03-11.17-31.42h-9.19s0,31.44,0,31.44l-32.53.03-.12-100.4,70.16-.07c4.62,0,8.31,1.43,11.07,4.28,2.76,2.86,4.11,6.67,4.06,11.42l.13,37.54c0,4.07-1.03,7.45-3.07,10.12-2.04,2.67-4.78,4.39-8.2,5.17l11.4,31.85ZM7164.41,7290.45l.04,43.94,20.23-.02-.04-43.94-20.23.02Z"/>
      <path class="st4" d="M7314.99,7362.47c-.06,4.75-1.48,8.56-4.29,11.43-2.8,2.86-6.47,4.3-11,4.3l-54.88.05c-4.62,0-8.33-1.42-11.14-4.28-2.81-2.86-4.18-6.66-4.13-11.42l-.13-68.97c.05-4.75,1.49-8.56,4.29-11.43,2.8-2.86,6.47-4.3,10.99-4.3l54.88-.05c4.62,0,8.34,1.42,11.14,4.28,2.81,2.86,4.19,6.67,4.13,11.42l.13,68.97ZM7262.01,7290.35l.03,75.37,20.37-.02-.04-75.37-20.37.02Z"/>
      <path class="st4" d="M7428.01,7378.08l-32.39.03-.02-58.2-20.63,58.22h-13.3s-21.38-58.17-21.38-58.17l.02,58.2h-12.16s-.12-100.38-.12-100.38l29.42-.03,20.26,54.83,19.49-54.87,30.69-.03.12,100.4Z"/>
      <path class="st4" d="M7526.46,7362.27c-.05,4.75-1.48,8.56-4.28,11.43-2.8,2.87-6.47,4.3-11,4.3l-54.88.05c-4.62,0-8.34-1.42-11.14-4.28-2.81-2.86-4.18-6.66-4.13-11.42l-.13-68.97c.05-4.75,1.48-8.56,4.29-11.43,2.8-2.86,6.47-4.3,10.99-4.3l54.88-.05c4.62,0,8.34,1.43,11.14,4.28,2.81,2.86,4.19,6.67,4.13,11.42l.12,68.97ZM7473.48,7290.15l.03,75.37,20.37-.02-.04-75.37-20.37.02Z"/>
      <path class="st4" d="M7617.76,7290.02l-24.33.02.08,87.88-32.54.03-.08-87.88-24.33.02-.04-12.51,81.19-.08.04,12.51Z"/>
      <path class="st4" d="M7660.41,7377.86l-32.53.03-.12-100.4,32.54-.03.12,100.4Z"/>
      <path class="st4" d="M7758.01,7362.05c-.05,4.75-1.48,8.56-4.28,11.43-2.8,2.86-6.47,4.3-11,4.3l-54.88.05c-4.62,0-8.34-1.42-11.14-4.28-2.81-2.86-4.18-6.66-4.13-11.42l-.13-68.97c.05-4.75,1.48-8.56,4.29-11.43,2.8-2.86,6.47-4.3,10.99-4.3l54.88-.05c4.62,0,8.34,1.42,11.14,4.28,2.81,2.86,4.19,6.67,4.13,11.42l.12,68.97ZM7705.03,7289.93l.03,75.37,20.37-.02-.04-75.37-20.37.02Z"/>
      <path class="st4" d="M7857.59,7377.67l-32.53.03-22.37-62.98.02,63-32.53.03-.12-100.4,32.53-.03,22.4,63.13-.05-63.15,32.53-.03.12,100.4Z"/>
      <path class="st4" d="M7939.83,7321.14c4.62,0,8.34,1.42,11.15,4.28,2.81,2.86,4.18,6.67,4.13,11.42l.09,25.03c-.05,4.75-1.48,8.56-4.28,11.43-2.8,2.86-6.47,4.3-10.99,4.3l-54.88.05c-4.62,0-8.31-1.42-11.07-4.28-2.76-2.86-4.16-6.66-4.2-11.42l-.11-13.53,32.53-.03.07,16.73,20.37-.02v-31.43s-37.62.04-37.62.04c-4.62,0-8.34-1.42-11.15-4.28-2.81-2.86-4.18-6.67-4.13-11.42l-.09-25.03c.05-4.75,1.48-8.56,4.28-11.43,2.8-2.86,6.47-4.3,11-4.3l54.88-.05c4.62,0,8.33,1.41,11.13,4.23,2.8,2.83,4.17,6.6,4.11,11.32l.11,13.53-32.53.03-.04-16.59-20.37.02v31.43s37.62-.04,37.62-.04Z"/>
    </g>
  </g>
  <path class="st4" d="M7990.28,7006.75c10.1,0,17.94,7.84,17.94,17.62s-7.84,17.73-18.05,17.73-18.16-7.74-18.16-17.73,8.06-17.62,18.16-17.62h.11ZM7990.06,7010.29c-7.74,0-13.54,6.34-13.54,14.08s5.8,14.08,13.75,14.08c7.74.11,13.43-6.23,13.43-14.08s-5.69-14.08-13.54-14.08h-.11ZM7987.37,7033.5h-4.08v-17.51c1.61-.32,3.87-.64,6.77-.64,3.33,0,4.83.54,6.12,1.4.97.75,1.72,2.15,1.72,3.76,0,2.04-1.51,3.54-3.66,4.19v.22c1.72.54,2.69,1.93,3.22,4.3.54,2.69.86,3.76,1.29,4.3h-4.4c-.54-.64-.86-2.15-1.4-4.19-.32-1.93-1.4-2.79-3.65-2.79h-1.93v6.98ZM7987.48,7023.62h1.93c2.26,0,4.08-.75,4.08-2.58,0-1.61-1.18-2.69-3.76-2.69-1.08,0-1.83.11-2.26.21v5.05Z"/>
</svg>